<svg xmlns="http://www.w3.org/2000/svg" width="41" height="26" viewBox="0 0 41 26" fill="none">
<g clip-path="url(#clip0_1540_511)">
<path d="M11.6524 9.6209C11.6524 10.1291 11.7063 10.5412 11.8007 10.8434C11.9086 11.1456 12.0435 11.4753 12.2323 11.8324C12.2997 11.9423 12.3267 12.0522 12.3267 12.1484C12.3267 12.2857 12.2458 12.4231 12.0704 12.5605L11.2208 13.1374C11.0994 13.2198 10.978 13.261 10.8701 13.261C10.7352 13.261 10.6004 13.1923 10.4655 13.0687C10.2767 12.8627 10.1149 12.6429 9.97999 12.4231C9.84512 12.1896 9.71025 11.9286 9.56189 11.6127C8.50992 12.8764 7.18821 13.5083 5.59676 13.5083C4.46387 13.5083 3.56025 13.1786 2.89939 12.5193C2.23854 11.8599 1.90137 10.9808 1.90137 9.88189C1.90137 8.71431 2.30597 7.76651 3.12867 7.05222C3.95137 6.33794 5.0438 5.98079 6.43295 5.98079C6.8915 5.98079 7.36354 6.022 7.86255 6.09068C8.36156 6.15936 8.87406 6.26926 9.41354 6.39288V5.39013C9.41354 4.34618 9.19775 3.61816 8.77966 3.19233C8.34808 2.76651 7.61979 2.56046 6.5813 2.56046C6.10926 2.56046 5.62374 2.61541 5.12472 2.73903C4.62571 2.86266 4.14018 3.01376 3.66814 3.20607C3.45235 3.30222 3.29051 3.35717 3.1961 3.38464C3.1017 3.41211 3.03426 3.42585 2.98031 3.42585C2.7915 3.42585 2.69709 3.28849 2.69709 3.00002V2.32695C2.69709 2.10717 2.72406 1.94233 2.7915 1.84618C2.85893 1.75002 2.98031 1.65387 3.16913 1.55772C3.64117 1.31046 4.20762 1.10442 4.86847 0.939585C5.52933 0.761013 6.23064 0.678596 6.97242 0.678596C8.57735 0.678596 9.75071 1.04947 10.506 1.79123C11.2477 2.53299 11.6254 3.65936 11.6254 5.17035V9.6209H11.6524ZM6.1767 11.7088C6.62176 11.7088 7.08031 11.6264 7.56584 11.4616C8.05137 11.2967 8.48295 10.9945 8.84709 10.5824C9.06288 10.3215 9.22472 10.033 9.30564 9.70332C9.38656 9.37365 9.44051 8.9753 9.44051 8.50827V7.93134C9.04939 7.83519 8.6313 7.75277 8.19972 7.69783C7.76814 7.64288 7.35005 7.61541 6.93196 7.61541C6.02834 7.61541 5.36749 7.79398 4.92242 8.16486C4.47735 8.53574 4.26156 9.05772 4.26156 9.74453C4.26156 10.3901 4.42341 10.8709 4.76058 11.2006C5.08426 11.544 5.5563 11.7088 6.1767 11.7088ZM17.0066 13.1923C16.7639 13.1923 16.602 13.1511 16.4941 13.055C16.3862 12.9726 16.2918 12.7802 16.2109 12.5193L13.0415 1.90112C12.9606 1.6264 12.9201 1.44783 12.9201 1.35167C12.9201 1.13189 13.028 1.00827 13.2438 1.00827H14.5655C14.8218 1.00827 14.9971 1.04947 15.0915 1.14563C15.1994 1.22805 15.2803 1.42035 15.3612 1.68134L17.627 10.7747L19.731 1.68134C19.7984 1.40662 19.8793 1.22805 19.9872 1.14563C20.0951 1.06321 20.2839 1.00827 20.5267 1.00827H21.6056C21.8619 1.00827 22.0372 1.04947 22.1451 1.14563C22.253 1.22805 22.3474 1.42035 22.4014 1.68134L24.5323 10.8846L26.8655 1.68134C26.9464 1.40662 27.0408 1.22805 27.1352 1.14563C27.2431 1.06321 27.4185 1.00827 27.6612 1.00827H28.9155C29.1313 1.00827 29.2527 1.11816 29.2527 1.35167C29.2527 1.42035 29.2392 1.48904 29.2257 1.57145C29.2122 1.65387 29.1852 1.76376 29.1313 1.91486L25.881 12.533C25.8 12.8077 25.7056 12.9863 25.5977 13.0687C25.4899 13.1511 25.3145 13.2061 25.0852 13.2061H23.9254C23.6691 13.2061 23.4938 13.1649 23.3859 13.0687C23.278 12.9726 23.1836 12.794 23.1297 12.5193L21.0392 3.65936L18.9622 12.5055C18.8948 12.7802 18.8139 12.9588 18.706 13.055C18.5981 13.1511 18.4093 13.1923 18.1665 13.1923H17.0066ZM34.3372 13.5632C33.6359 13.5632 32.9346 13.4808 32.2602 13.316C31.5859 13.1511 31.0599 12.9726 30.7093 12.7665C30.4935 12.6429 30.3451 12.5055 30.2912 12.3819C30.2372 12.2583 30.2102 12.1209 30.2102 11.9973V11.2967C30.2102 11.0083 30.3181 10.8709 30.5204 10.8709C30.6014 10.8709 30.6823 10.8846 30.7632 10.9121C30.8441 10.9396 30.9655 10.9945 31.1004 11.0495C31.5589 11.2555 32.0579 11.4204 32.5839 11.5302C33.1234 11.6401 33.6494 11.6951 34.1889 11.6951C35.0385 11.6951 35.6994 11.544 36.1579 11.2418C36.6165 10.9396 36.8593 10.5 36.8593 9.93684C36.8593 9.55222 36.7379 9.23629 36.4951 8.9753C36.2524 8.71431 35.7938 8.48079 35.1329 8.26101L33.1774 7.64288C32.1928 7.32695 31.4645 6.85991 31.0195 6.24178C30.5744 5.63739 30.3451 4.96431 30.3451 4.25002C30.3451 3.6731 30.4665 3.16486 30.7093 2.7253C30.952 2.28574 31.2757 1.90112 31.6803 1.59893C32.0849 1.28299 32.5435 1.04947 33.0829 0.88464C33.6224 0.719804 34.1889 0.651123 34.7823 0.651123C35.079 0.651123 35.3892 0.664859 35.6859 0.706068C35.9961 0.747277 36.2793 0.802222 36.5625 0.857167C36.8323 0.925848 37.0885 0.99453 37.3313 1.07695C37.5741 1.15936 37.7629 1.24178 37.8977 1.3242C38.0866 1.43409 38.2214 1.54398 38.3024 1.66761C38.3833 1.7775 38.4237 1.9286 38.4237 2.1209V2.76651C38.4237 3.05497 38.3158 3.20607 38.1135 3.20607C38.0056 3.20607 37.8303 3.15112 37.601 3.04123C36.8323 2.68409 35.9691 2.50552 35.0116 2.50552C34.2428 2.50552 33.6359 2.62914 33.2178 2.89013C32.7997 3.15112 32.5839 3.54947 32.5839 4.11266C32.5839 4.49728 32.7188 4.82695 32.9885 5.08794C33.2583 5.34893 33.7573 5.60991 34.4721 5.84343L36.3872 6.46156C37.3583 6.7775 38.0596 7.21706 38.4777 7.78024C38.8958 8.34343 39.0981 8.98903 39.0981 9.70332C39.0981 10.294 38.9767 10.8297 38.7474 11.2967C38.5047 11.7638 38.181 12.1758 37.7629 12.5055C37.3448 12.8489 36.8458 13.0962 36.2658 13.2747C35.6589 13.4671 35.025 13.5632 34.3372 13.5632Z" fill="#123ede"/>
<path fill-rule="evenodd" clip-rule="evenodd" d="M36.8862 20.2389C32.449 23.5769 26.0023 25.3488 20.4592 25.3488C12.6908 25.3488 5.6911 22.423 0.404256 17.5604C-0.0138357 17.1758 0.363796 16.6538 0.862809 16.956C6.58123 20.3351 13.6348 22.3818 20.9312 22.3818C25.8539 22.3818 31.2622 21.3378 36.2388 19.195C36.9806 18.8516 37.6145 19.6895 36.8862 20.2389Z" fill="#123ede"/>
<path fill-rule="evenodd" clip-rule="evenodd" d="M38.7342 18.0961C38.1677 17.3543 34.9848 17.739 33.5417 17.9175C33.1102 17.9725 33.0427 17.5879 33.4338 17.2994C35.9694 15.4862 40.1368 16.0082 40.6223 16.6126C41.1078 17.2307 40.4875 21.4752 38.1138 23.5082C37.7496 23.8241 37.399 23.6593 37.5608 23.2472C38.1003 21.8873 39.3006 18.8241 38.7342 18.0961Z" fill="#123ede"/>
</g>
<defs>
<clipPath id="clip0_1540_511">
<rect width="41" height="25" fill="white" transform="translate(0 0.5)"/>
</clipPath>
</defs>
</svg>