<svg xmlns="http://www.w3.org/2000/svg" width="30" height="30" viewBox="0 0 30 30" fill="none">
<path d="M26.25 0H3.75C2.75544 0 1.80161 0.395088 1.09835 1.09835C0.395088 1.80161 0 2.75544 0 3.75L0 22.5C0 23.4946 0.395088 24.4484 1.09835 25.1517C1.80161 25.8549 2.75544 26.25 3.75 26.25H11.875C12.2065 26.25 12.5245 26.1183 12.7589 25.8839C12.9933 25.6495 13.125 25.3315 13.125 25C13.125 24.6685 12.9933 24.3505 12.7589 24.1161C12.5245 23.8817 12.2065 23.75 11.875 23.75H3.75C3.41848 23.75 3.10054 23.6183 2.86612 23.3839C2.6317 23.1495 2.5 22.8315 2.5 22.5V9.375C2.5 9.20924 2.56585 9.05027 2.68306 8.93306C2.80027 8.81585 2.95924 8.75 3.125 8.75H26.875C27.0408 8.75 27.1997 8.81585 27.3169 8.93306C27.4342 9.05027 27.5 9.20924 27.5 9.375V11.25C27.5 11.5815 27.6317 11.8995 27.8661 12.1339C28.1005 12.3683 28.4185 12.5 28.75 12.5C29.0815 12.5 29.3995 12.3683 29.6339 12.1339C29.8683 11.8995 30 11.5815 30 11.25V3.75C30 2.75544 29.6049 1.80161 28.9017 1.09835C28.1984 0.395088 27.2446 0 26.25 0V0ZM13.75 4.375C13.75 4.62223 13.6767 4.8639 13.5393 5.06946C13.402 5.27502 13.2068 5.43524 12.9784 5.52985C12.7499 5.62446 12.4986 5.64921 12.2561 5.60098C12.0137 5.55275 11.7909 5.4337 11.6161 5.25888C11.4413 5.08407 11.3222 4.86134 11.274 4.61886C11.2258 4.37639 11.2505 4.12505 11.3451 3.89665C11.4398 3.66824 11.6 3.47301 11.8055 3.33566C12.0111 3.19831 12.2528 3.125 12.5 3.125C12.8315 3.125 13.1495 3.2567 13.3839 3.49112C13.6183 3.72554 13.75 4.04348 13.75 4.375ZM10 4.375C10 4.62223 9.92669 4.8639 9.78934 5.06946C9.65199 5.27502 9.45676 5.43524 9.22835 5.52985C8.99995 5.62446 8.74861 5.64921 8.50614 5.60098C8.26366 5.55275 8.04093 5.4337 7.86612 5.25888C7.6913 5.08407 7.57225 4.86134 7.52402 4.61886C7.47579 4.37639 7.50054 4.12505 7.59515 3.89665C7.68976 3.66824 7.84998 3.47301 8.05554 3.33566C8.2611 3.19831 8.50277 3.125 8.75 3.125C9.08152 3.125 9.39946 3.2567 9.63388 3.49112C9.8683 3.72554 10 4.04348 10 4.375ZM6.25 4.375C6.25 4.62223 6.17669 4.8639 6.03934 5.06946C5.90199 5.27502 5.70676 5.43524 5.47835 5.52985C5.24995 5.62446 4.99861 5.64921 4.75614 5.60098C4.51366 5.55275 4.29093 5.4337 4.11612 5.25888C3.9413 5.08407 3.82225 4.86134 3.77402 4.61886C3.72579 4.37639 3.75054 4.12505 3.84515 3.89665C3.93976 3.66824 4.09998 3.47301 4.30554 3.33566C4.5111 3.19831 4.75277 3.125 5 3.125C5.33152 3.125 5.64946 3.2567 5.88388 3.49112C6.1183 3.72554 6.25 4.04348 6.25 4.375Z" fill="#123ede"/>
<path d="M14.9276 12.3911C14.8091 12.2775 14.6694 12.1883 14.5164 12.1287C14.3634 12.0691 14.2002 12.0403 14.0361 12.0437C13.8719 12.0472 13.7101 12.083 13.5598 12.149C13.4095 12.2151 13.2737 12.3101 13.1601 12.4286L8.89759 16.8748C8.86835 16.9053 8.83322 16.9296 8.79433 16.9461C8.75544 16.9627 8.7136 16.9712 8.67134 16.9711C8.62925 16.9713 8.58756 16.9629 8.54886 16.9463C8.51015 16.9298 8.47526 16.9054 8.44634 16.8748L7.77759 16.1773C7.54818 15.938 7.23308 15.7996 6.90161 15.7925C6.57014 15.7855 6.24945 15.9104 6.01009 16.1398C5.77073 16.3692 5.63231 16.6844 5.62528 17.0158C5.61825 17.3473 5.74318 17.668 5.97259 17.9073L7.77009 19.7823C7.88675 19.9039 8.02678 20.0006 8.18176 20.0667C8.33675 20.1328 8.50349 20.1668 8.67197 20.1668C8.84045 20.1668 9.00719 20.1328 9.16217 20.0667C9.31716 20.0006 9.45718 19.9039 9.57384 19.7823L14.9651 14.1573C15.1941 13.918 15.3188 13.5976 15.3118 13.2665C15.3048 12.9353 15.1666 12.6204 14.9276 12.3911Z" fill="#123ede"/>
<path d="M21.7275 20.1475C21.6875 20.1878 21.6372 20.2164 21.5822 20.2303C21.5271 20.2441 21.4693 20.2428 21.415 20.2263C20.9573 20.0807 20.4803 20.0044 20 20C19.0111 20 18.0444 20.2932 17.2222 20.8427C16.3999 21.3921 15.759 22.173 15.3806 23.0866C15.0022 24.0002 14.9031 25.0055 15.0961 25.9755C15.289 26.9454 15.7652 27.8363 16.4645 28.5355C17.1637 29.2348 18.0546 29.711 19.0246 29.9039C19.9945 30.0969 20.9998 29.9978 21.9134 29.6194C22.827 29.241 23.6079 28.6001 24.1573 27.7779C24.7068 26.9556 25 25.9889 25 25C24.9957 24.5201 24.9194 24.0435 24.7738 23.5863C24.7571 23.5319 24.7556 23.4741 24.7695 23.419C24.7834 23.3639 24.8121 23.3137 24.8525 23.2738L29.9087 18.2163C29.9663 18.1589 29.9991 18.0813 30 18V15.3125C30 15.2296 29.9671 15.1501 29.9085 15.0915C29.8499 15.0329 29.7704 15 29.6875 15H27C26.9589 14.9999 26.9182 15.0078 26.8803 15.0235C26.8423 15.0392 26.8078 15.0622 26.7788 15.0913L21.7275 20.1475ZM20 26.875C19.6292 26.875 19.2667 26.765 18.9583 26.559C18.65 26.353 18.4096 26.0601 18.2677 25.7175C18.1258 25.3749 18.0887 24.9979 18.161 24.6342C18.2334 24.2705 18.412 23.9364 18.6742 23.6742C18.9364 23.412 19.2705 23.2334 19.6342 23.161C19.9979 23.0887 20.3749 23.1258 20.7175 23.2677C21.0601 23.4096 21.353 23.65 21.559 23.9583C21.765 24.2666 21.875 24.6292 21.875 25C21.875 25.4973 21.6775 25.9742 21.3258 26.3258C20.9742 26.6775 20.4973 26.875 20 26.875Z" fill="#123ede"/>
</svg>