<svg xmlns="http://www.w3.org/2000/svg" width="30" height="30" viewBox="0 0 30 30" fill="none">
<path d="M18.75 12.5H18.4375V10.75C18.4375 9.83832 18.0753 8.96398 17.4307 8.31932C16.786 7.67466 15.9117 7.3125 15 7.3125C14.0883 7.3125 13.214 7.67466 12.5693 8.31932C11.9247 8.96398 11.5625 9.83832 11.5625 10.75V12.5H11.25C10.9185 12.5 10.6005 12.6317 10.3661 12.8661C10.1317 13.1005 10 13.4185 10 13.75V19.375C10 19.7065 10.1317 20.0245 10.3661 20.2589C10.6005 20.4933 10.9185 20.625 11.25 20.625H18.75C19.0815 20.625 19.3995 20.4933 19.6339 20.2589C19.8683 20.0245 20 19.7065 20 19.375V13.75C20 13.4185 19.8683 13.1005 19.6339 12.8661C19.3995 12.6317 19.0815 12.5 18.75 12.5ZM15 17.1875C14.7528 17.1875 14.5111 17.1142 14.3055 16.9768C14.1 16.8395 13.9398 16.6443 13.8452 16.4159C13.7505 16.1874 13.7258 15.9361 13.774 15.6936C13.8222 15.4512 13.9413 15.2284 14.1161 15.0536C14.2909 14.8788 14.5137 14.7597 14.7561 14.7115C14.9986 14.6633 15.2499 14.688 15.4784 14.7827C15.7068 14.8773 15.902 15.0375 16.0393 15.243C16.1767 15.4486 16.25 15.6903 16.25 15.9375C16.25 16.269 16.1183 16.587 15.8839 16.8214C15.6495 17.0558 15.3315 17.1875 15 17.1875ZM13.4375 12.5V10.75C13.4375 10.3356 13.6021 9.93817 13.8951 9.64515C14.1882 9.35212 14.5856 9.1875 15 9.1875C15.4144 9.1875 15.8118 9.35212 16.1049 9.64515C16.3979 9.93817 16.5625 10.3356 16.5625 10.75V12.5H13.4375Z" fill="#123ede"/>
<path d="M21.25 0H8.75C7.75544 0 6.80161 0.395088 6.09835 1.09835C5.39509 1.80161 5 2.75544 5 3.75V26.25C5 27.2446 5.39509 28.1984 6.09835 28.9017C6.80161 29.6049 7.75544 30 8.75 30H21.25C22.2446 30 23.1984 29.6049 23.9017 28.9017C24.6049 28.1984 25 27.2446 25 26.25V3.75C25 2.75544 24.6049 1.80161 23.9017 1.09835C23.1984 0.395088 22.2446 0 21.25 0V0ZM22.5 23.75C22.5 23.9158 22.4342 24.0747 22.3169 24.1919C22.1997 24.3092 22.0408 24.375 21.875 24.375H8.125C7.95924 24.375 7.80027 24.3092 7.68306 24.1919C7.56585 24.0747 7.5 23.9158 7.5 23.75V4.375C7.5 4.20924 7.56585 4.05027 7.68306 3.93306C7.80027 3.81585 7.95924 3.75 8.125 3.75H21.875C22.0408 3.75 22.1997 3.81585 22.3169 3.93306C22.4342 4.05027 22.5 4.20924 22.5 4.375V23.75Z" fill="#123ede"/>
</svg>